<?xml version="1.0" standalone="no"?>
<!DOCTYPE svg PUBLIC "-//W3C//DTD SVG 20010904//EN"
 "http://www.w3.org/TR/2001/REC-SVG-20010904/DTD/svg10.dtd">
<svg version="1.0" xmlns="http://www.w3.org/2000/svg"
 width="213.000000pt" height="320.000000pt" viewBox="0 0 213.000000 320.000000"
 preserveAspectRatio="xMidYMid meet">

<g transform="translate(0.000000,320.000000) scale(0.100000,-0.100000)"
fill="#000000" stroke="none">
<path d="M0 3006 l0 -194 33 3 c17 2 38 3 45 4 6 1 12 10 12 20 0 11 5 23 11
27 19 11 1 -45 -22 -69 -14 -15 -29 -21 -49 -19 -22 3 -30 -1 -30 -12 0 -9 5
-16 12 -16 9 0 9 -3 0 -12 -15 -15 -16 -58 -2 -58 6 0 10 5 10 12 0 9 3 9 12
0 10 -10 10 -15 -2 -22 -8 -5 -18 -6 -22 -3 -5 2 -8 -57 -7 -131 l1 -137 39
-19 c21 -11 46 -20 55 -20 10 0 37 -9 61 -21 34 -16 57 -20 113 -17 38 2 70 0
70 -4 0 -16 39 -8 49 10 10 16 10 16 11 -1 0 -10 4 -16 8 -13 4 2 14 0 22 -5
11 -8 8 -9 -13 -6 -20 3 -27 1 -23 -8 2 -7 -1 -18 -7 -24 -8 -8 -6 -11 9 -11
12 0 23 -3 27 -6 6 -7 -29 -44 -42 -44 -13 0 -21 27 -15 45 4 8 2 15 -2 16
-38 5 -74 6 -74 2 0 -3 9 -12 20 -21 39 -33 17 -54 -89 -90 -53 -17 -107 -32
-119 -32 -41 0 -102 -31 -102 -52 0 -16 6 -19 46 -17 26 2 56 11 69 21 13 10
27 18 32 17 15 -4 43 13 37 22 -3 5 3 6 12 2 13 -5 15 -3 9 7 -5 9 -4 11 3 6
6 -4 33 2 59 13 52 21 133 34 133 21 0 -5 -33 -20 -72 -35 -40 -14 -92 -35
-116 -46 -48 -22 -56 -23 -47 -9 3 5 -7 5 -25 -1 -36 -13 -38 -17 -7 -16 12 1
33 -2 47 -7 16 -5 20 -4 12 2 -11 7 -9 11 9 15 26 7 68 -21 61 -41 -3 -10 -7
-9 -16 4 -11 14 -18 15 -45 6 -24 -9 -37 -8 -51 0 -15 10 -26 8 -53 -7 l-35
-19 28 -15 c16 -9 39 -29 52 -46 l23 -30 -31 22 c-23 17 -41 21 -74 18 -24 -3
-45 -7 -48 -10 -3 -3 -7 -45 -9 -94 -4 -87 -3 -90 19 -94 l23 -4 -22 -2 c-18
-1 -23 -7 -22 -28 2 -24 2 -25 6 -5 2 12 7 22 11 22 19 -1 33 -20 30 -41 -2
-19 -9 -24 -28 -22 -23 2 -22 0 7 -12 52 -24 52 -40 -2 -64 -19 -8 -25 -15
-17 -18 8 -3 19 0 25 6 6 6 18 11 26 10 11 0 10 -3 -4 -9 -18 -7 -19 -8 -3
-15 28 -11 21 -22 -17 -29 -19 -4 -35 -11 -35 -16 0 -13 10 -13 57 4 37 13 41
13 57 -6 10 -11 24 -17 32 -14 17 6 -5 -28 -48 -74 -13 -14 -20 -21 -16 -16
15 19 8 37 -18 47 -44 16 -63 4 -62 -41 0 -27 4 -38 12 -33 6 3 6 0 -2 -8 -6
-7 -12 -24 -12 -37 0 -21 2 -23 15 -12 9 7 14 19 11 27 -3 8 -1 11 4 8 6 -3
10 -2 10 3 0 6 7 13 16 16 9 4 0 -14 -21 -39 -23 -28 -35 -52 -31 -61 5 -12
15 -4 44 34 20 28 39 49 41 46 3 -2 -4 -17 -15 -32 -11 -15 -21 -43 -22 -62
-1 -23 -11 -42 -26 -55 -20 -18 -24 -30 -25 -97 -1 -43 1 -83 4 -88 9 -15 80
49 81 73 1 11 9 24 18 29 13 7 14 13 6 29 -6 10 -7 19 -3 18 21 -4 33 2 33 16
0 17 -30 35 -62 35 -18 0 -20 2 -9 9 10 6 24 5 40 -3 27 -14 55 -11 45 5 -3 5
0 9 5 9 14 0 14 -13 1 -26 -7 -7 -1 -9 19 -6 24 3 78 42 58 42 -3 0 15 20 39
45 24 25 44 49 44 54 0 4 10 13 23 19 21 10 21 11 -8 13 -16 1 -36 2 -42 2
-28 -1 -10 15 30 26 23 7 48 18 54 23 7 6 25 7 40 4 17 -4 23 -3 15 2 -8 6 -2
13 23 25 19 9 44 32 57 50 12 19 31 38 42 43 12 5 25 19 31 32 5 12 15 22 20
22 6 0 35 34 65 77 57 78 206 253 218 253 3 0 -11 -18 -33 -40 -46 -47 -42
-64 5 -20 35 32 40 35 40 20 0 -5 -32 -29 -70 -55 -39 -25 -73 -53 -77 -63 -3
-9 -18 -33 -33 -52 -45 -58 -45 -67 -2 -26 23 22 45 48 48 58 3 10 9 16 14 13
5 -3 11 4 15 15 4 11 10 18 15 15 5 -3 17 5 27 18 10 12 33 33 50 45 18 13 32
27 30 31 -2 8 98 81 110 81 3 0 -36 -39 -86 -86 -51 -48 -98 -99 -107 -115 -8
-16 -20 -26 -27 -23 -7 2 -27 -10 -43 -28 -17 -18 -50 -50 -74 -71 -43 -36
-43 -37 -16 -37 15 0 25 4 22 9 -3 4 4 17 15 27 11 10 33 32 50 49 16 16 29
25 29 20 0 -6 5 -3 11 5 8 13 10 12 7 -3 -2 -10 -7 -18 -13 -18 -11 1 -27 -50
-19 -58 3 -3 9 1 14 9 8 12 10 13 10 1 0 -11 5 -9 21 5 15 14 19 26 15 47 -5
25 -4 28 9 17 12 -10 16 -9 21 4 3 9 11 16 17 16 5 0 2 -9 -8 -20 -17 -18 -17
-21 -1 -55 9 -19 18 -35 19 -35 1 0 3 11 3 25 1 14 -2 23 -6 20 -5 -3 -5 5 -2
17 5 20 8 18 25 -20 l19 -44 19 36 c11 20 20 47 21 60 1 13 7 22 13 20 5 -2
21 11 34 29 13 18 36 41 50 51 15 11 8 0 -16 -25 -52 -55 -87 -122 -81 -154 3
-13 0 -26 -6 -29 -6 -2 -3 -5 7 -5 10 -1 16 -5 13 -10 -5 -8 15 -18 66 -35 9
-2 19 0 22 7 2 7 5 4 5 -5 1 -10 8 -18 16 -18 8 0 15 -5 15 -11 0 -5 -5 -7
-11 -3 -10 6 -43 16 -273 80 -48 14 -94 23 -102 20 -7 -3 -16 -21 -20 -41 -3
-19 -10 -38 -15 -41 -14 -8 0 -24 22 -24 17 0 18 -3 9 -21 -15 -28 -5 -37 12
-10 19 32 42 27 33 -6 l-7 -28 24 23 c29 27 48 30 24 3 -17 -18 -17 -19 1 -23
24 -5 63 2 63 12 0 4 -12 6 -27 3 -25 -3 -26 -2 -6 6 26 12 93 -6 93 -26 0 -7
5 -13 10 -13 6 0 10 -5 10 -11 0 -6 -6 -9 -14 -6 -14 6 -33 -39 -21 -51 3 -3
5 2 5 11 0 9 6 17 14 17 17 0 28 24 20 45 -7 18 -3 18 48 3 21 -6 37 -16 35
-22 -3 -6 -10 -10 -17 -8 -6 1 -14 -7 -17 -18 -3 -11 -9 -20 -14 -20 -10 0
-21 -25 -33 -70 -3 -14 3 -5 15 20 14 31 22 41 28 31 7 -11 11 -10 22 2 7 7
21 12 31 9 25 -6 12 -22 -18 -22 -16 0 -24 -6 -25 -17 0 -13 -2 -14 -6 -4 -4
9 -12 0 -23 -25 -29 -65 -30 -77 -9 -103 25 -30 35 -21 23 22 -6 17 -7 46 -3
62 6 28 7 28 9 5 l2 -25 8 25 7 25 7 -30 c18 -69 15 -67 43 -39 15 15 49 38
77 51 l51 25 -42 -5 c-24 -3 -43 -1 -43 4 0 5 9 9 21 9 11 0 18 4 15 8 -5 9
44 7 174 -5 44 -4 63 -9 45 -11 -32 -4 -55 -18 -55 -34 0 -5 9 -6 21 -3 14 5
25 1 36 -12 13 -16 14 -16 9 0 -4 14 1 17 27 17 18 0 41 -6 51 -13 15 -11 16
-20 8 -67 -11 -61 -6 -82 15 -55 12 18 13 18 13 -1 0 -11 6 -26 13 -33 10 -11
9 -13 -1 -7 -9 5 -12 -1 -11 -21 0 -15 -4 -47 -10 -70 -6 -24 -10 -48 -9 -55
2 -7 -3 -12 -9 -10 -18 3 -16 -19 7 -69 11 -24 20 -57 20 -74 l0 -29 -16 22
c-24 35 -94 14 -94 -29 0 -10 -5 -21 -10 -24 -6 -3 -10 -15 -10 -27 0 -15 5
-19 18 -14 9 3 3 -6 -14 -22 -30 -28 -31 -32 -37 -140 l-6 -111 42 18 c24 10
58 22 77 26 19 4 46 14 60 23 14 10 36 18 50 18 14 1 79 17 145 36 181 53 175
52 175 28 0 -13 -7 -20 -18 -20 -10 0 -50 -11 -88 -24 -38 -13 -111 -34 -161
-46 -51 -12 -93 -25 -93 -30 0 -4 -8 -6 -18 -3 -19 5 -137 -25 -129 -33 2 -2
27 3 56 12 29 8 57 14 64 11 6 -2 -11 -9 -39 -16 -138 -36 -128 -29 -137 -99
-5 -35 -6 -66 -2 -70 4 -4 45 -7 91 -7 46 0 84 -3 84 -6 0 -3 14 -3 31 -1 17
3 34 0 38 -5 10 -15 138 -55 179 -55 46 -1 82 4 82 12 0 3 9 11 21 18 12 8 18
9 15 3 -5 -7 4 -9 26 -6 l33 5 -34 -13 c-64 -25 -45 -37 63 -41 27 -1 31 3 43
49 20 77 19 78 -58 115 -39 19 -73 38 -76 43 -3 4 32 -10 77 -33 88 -44 86
-45 62 19 -3 9 2 7 15 -5 11 -10 18 -22 16 -26 -6 -12 16 -48 30 -48 7 0 29
-9 49 -20 l38 -20 0 260 c0 221 -3 262 -15 266 -8 4 -12 10 -9 15 3 5 -1 9 -8
9 -7 0 -55 20 -107 45 -51 25 -95 44 -98 42 -2 -3 11 -24 29 -48 50 -66 70
-100 64 -107 -3 -3 -7 -3 -9 -1 -1 2 -20 30 -40 62 -21 32 -54 67 -73 79 -37
22 -47 36 -12 17 17 -9 24 -8 34 5 7 10 15 13 18 8 6 -10 198 -92 215 -92 6 0
11 20 11 44 0 43 -2 46 -68 94 -76 55 -113 77 -125 74 -4 -1 -10 5 -13 13 -3
8 -28 31 -56 51 -27 20 -47 39 -44 42 3 2 12 -1 20 -7 8 -7 20 -10 26 -6 6 4
29 -5 52 -20 23 -15 48 -25 59 -22 22 6 25 -3 7 -22 -11 -10 -10 -12 2 -10 8
2 41 -11 73 -30 32 -18 60 -31 63 -28 3 2 3 53 2 113 l-3 109 -20 -54 c-11
-30 -27 -57 -35 -59 -11 -4 -13 -2 -4 9 5 8 22 43 36 79 20 51 26 82 26 146 0
74 -2 83 -21 92 -18 8 -26 5 -45 -17 -24 -27 -23 -23 8 39 9 17 7 20 -15 20
-32 0 -314 -48 -326 -56 -5 -3 -9 -1 -9 5 0 6 -8 8 -17 4 -10 -3 -15 -3 -11 1
3 4 33 10 65 13 32 2 60 7 62 9 7 7 -159 4 -231 -4 -37 -5 -65 -4 -62 0 8 12
60 18 195 22 70 2 132 7 138 10 6 4 11 5 11 1 0 -3 -10 -10 -22 -16 -19 -8
-15 -8 17 -4 22 2 51 8 65 11 14 3 44 9 68 13 40 8 69 21 43 21 -7 0 -9 5 -6
10 3 6 1 10 -5 10 -6 0 -9 8 -6 18 5 15 0 18 -30 17 -33 -2 -35 0 -18 12 10 7
13 13 6 13 -13 0 -84 -32 -92 -41 -5 -7 -72 -22 -105 -24 -11 -1 -43 -9 -72
-19 -64 -21 -189 -36 -202 -23 -11 11 -77 -17 -83 -35 -3 -9 -6 -9 -12 0 -4 7
-2 12 3 12 6 0 11 5 11 10 0 6 -17 10 -37 9 -31 -2 -257 52 -269 64 -2 2 23 1
56 -1 49 -4 60 -2 60 11 0 8 8 21 18 28 15 13 16 12 4 -3 -21 -27 1 -55 56
-71 44 -12 80 -10 147 10 l20 6 -20 -24 -20 -24 22 18 c12 11 38 20 57 22 42
4 56 11 56 30 0 7 7 16 16 19 9 4 14 9 11 12 -3 3 -15 0 -27 -6 -15 -8 -20 -8
-16 -1 13 21 95 51 138 51 24 0 50 6 56 12 10 10 15 10 21 0 6 -11 29 -12 94
-8 47 3 98 8 113 12 23 6 25 9 12 18 -20 15 -31 63 -16 68 7 3 8 9 3 19 -14
21 -15 42 -4 55 8 9 4 11 -13 8 l-23 -5 24 14 c13 8 32 12 41 10 10 -3 21 0
24 5 4 6 -3 8 -16 5 -23 -5 -23 -5 -3 10 11 8 18 18 15 20 -3 3 -45 -19 -95
-49 -49 -31 -134 -78 -188 -105 -54 -27 -95 -53 -92 -58 6 -11 -19 -21 -53
-21 l-27 0 25 14 c14 8 79 43 145 78 154 82 210 118 198 127 -6 3 -13 16 -17
29 -6 18 -4 22 16 21 13 0 17 -3 10 -6 -17 -7 -5 -23 19 -23 11 0 19 7 20 18
0 10 3 12 6 5 2 -7 11 -13 19 -13 9 0 12 5 9 11 -4 6 -1 10 6 8 8 -1 25 -1 39
0 25 2 25 2 3 11 -13 5 -23 13 -23 18 0 8 -24 8 -117 -1 -30 -3 -61 -18 -106
-50 -85 -61 -202 -157 -191 -157 5 0 40 18 78 40 38 22 70 39 72 37 2 -2 -39
-29 -92 -61 -53 -32 -108 -70 -121 -84 l-25 -27 31 -3 c17 -2 31 -7 31 -13 0
-5 -57 -9 -132 -9 -73 0 -127 -4 -120 -8 7 -5 49 -7 93 -4 80 5 81 4 70 -16
-14 -27 -14 -39 1 -24 14 14 28 16 28 4 0 -16 -59 -29 -98 -22 -43 7 -112 46
-112 61 0 6 -10 9 -22 7 -15 -2 -23 2 -23 12 0 12 16 14 88 11 74 -2 91 0 101
14 12 16 13 16 30 0 16 -17 18 -16 31 1 7 10 11 22 9 26 -2 3 14 17 35 29 22
12 38 25 36 29 -6 9 29 39 150 131 118 89 132 104 110 113 -8 3 -15 10 -15 16
0 9 48 45 103 77 19 11 19 11 -3 23 -12 6 -28 9 -36 6 -9 -4 -12 -2 -8 5 3 6
16 8 28 5 16 -4 23 -1 23 9 0 19 -20 19 -59 -1 l-32 -16 29 -12 30 -12 -33
-16 c-18 -9 -30 -12 -27 -7 10 15 -7 10 -28 -9 -18 -15 -20 -15 -14 0 4 11 -2
19 -21 26 -50 20 -77 25 -105 23 -27 -1 -28 0 -22 29 6 26 4 29 -12 23 -15 -6
-16 -5 -5 9 11 14 10 17 -10 20 -15 2 -22 9 -20 21 2 9 -3 17 -10 17 -7 0 -14
10 -14 23 -2 25 -14 95 -20 115 -5 16 -44 -22 -44 -44 0 -8 -4 -13 -9 -9 -5 3
-16 -1 -24 -9 -17 -18 -84 -27 -112 -16 -18 8 -18 9 5 10 23 1 23 2 7 11 -11
6 -30 9 -43 6 -27 -5 -33 9 -6 16 11 3 7 5 -10 6 -43 2 -60 11 -48 26 8 9 8
15 0 20 -5 3 -10 17 -10 31 0 13 -5 24 -11 24 -5 0 -19 19 -29 43 -11 24 -29
52 -40 62 -19 17 -23 17 -54 3 -40 -19 -52 -61 -32 -109 15 -36 10 -69 -10
-69 -8 0 -11 -6 -8 -15 4 -8 12 -15 19 -15 8 0 17 -5 21 -11 4 -8 0 -9 -15 -4
-12 4 -21 2 -21 -4 0 -6 4 -11 10 -11 5 0 9 -4 7 -9 -1 -5 7 -17 18 -25 15
-11 16 -15 5 -16 -8 0 -24 -12 -36 -27 l-22 -28 -26 28 c-14 15 -26 33 -26 39
0 5 -7 7 -16 4 -8 -3 -13 -2 -9 3 10 17 -100 60 -165 64 -44 3 -50 35 -16 88
17 25 45 56 62 70 18 13 37 33 42 44 9 19 -1 65 -13 65 -4 0 -35 -24 -70 -52
-43 -36 -63 -59 -61 -70 2 -10 0 -18 -6 -18 -6 0 -8 -13 -4 -34 6 -29 3 -34
-16 -40 -62 -16 -127 6 -115 39 3 6 1 18 -3 25 -5 8 -4 23 3 34 6 12 10 25 9
29 -2 5 11 21 27 35 16 15 42 51 57 80 28 56 170 214 188 210 6 -2 34 9 61 22
44 22 61 25 147 23 67 -2 115 -9 160 -24 34 -11 77 -21 94 -22 27 -1 35 -7 53
-45 12 -24 19 -48 16 -53 -4 -5 1 -9 9 -9 9 0 16 -6 16 -14 0 -7 9 -16 20 -19
12 -3 20 -14 20 -26 0 -11 7 -26 16 -33 9 -7 27 -24 41 -38 l24 -24 -5 27 c-5
26 -4 27 44 25 27 -1 47 -5 45 -8 -2 -3 9 -11 25 -17 l28 -11 -31 33 c-18 17
-35 27 -38 22 -4 -5 -9 -5 -13 2 -4 6 -3 11 3 11 5 0 11 8 13 17 2 13 11 9 39
-21 28 -30 37 -35 42 -23 4 12 1 15 -11 11 -15 -5 -15 -4 -2 5 8 6 34 16 57
22 l43 11 -3 79 c-1 51 2 82 10 90 10 10 11 4 6 -24 -3 -20 0 -66 7 -102 11
-58 15 -66 39 -71 14 -3 32 -8 39 -10 10 -3 13 13 12 69 -2 116 -1 147 8 147
5 0 7 -25 4 -55 -5 -63 5 -128 19 -120 5 4 9 2 9 -4 0 -5 -4 -13 -10 -16 -23
-14 -8 -23 17 -10 26 14 28 13 38 -12 8 -18 14 -23 19 -15 4 7 16 12 26 12 18
0 19 12 20 275 l0 275 -1065 0 -1065 0 0 -194z m860 175 c0 -6 -4 -13 -10 -16
-5 -3 -10 1 -10 9 0 9 5 16 10 16 6 0 10 -4 10 -9z m4 -56 c-4 -8 -10 -13 -15
-10 -4 3 -6 12 -3 20 4 8 10 13 15 10 4 -3 6 -12 3 -20z m36 21 c0 -3 -4 -8
-10 -11 -5 -3 -10 -1 -10 4 0 6 5 11 10 11 6 0 10 -2 10 -4z m75 -36 c3 -5 1
-10 -4 -10 -6 0 -11 5 -11 10 0 6 2 10 4 10 3 0 8 -4 11 -10z m684 -146 c36
-7 39 -22 12 -55 l-18 -23 -33 33 c-27 26 -31 35 -19 42 17 11 18 11 58 3z
m390 -76 c0 -28 -2 -30 -9 -13 -12 28 -12 45 0 45 6 0 10 -15 9 -32z m-1979
-38 c0 -5 -7 -10 -15 -10 -8 0 -15 5 -15 10 0 6 7 10 15 10 8 0 15 -4 15 -10z
m90 -19 c0 -5 3 -18 6 -28 5 -16 4 -16 -10 1 -18 23 -20 36 -6 36 6 0 10 -4
10 -9z m-49 -38 c-12 -20 -14 -14 -5 12 4 9 9 14 11 11 3 -2 0 -13 -6 -23z
m-27 -28 c-4 -8 -11 -15 -16 -15 -6 0 -5 6 2 15 7 8 14 15 16 15 2 0 1 -7 -2
-15z m2006 -55 c0 -5 -4 -10 -10 -10 -5 0 -10 5 -10 10 0 6 5 10 10 10 6 0 10
-4 10 -10z m-310 -10 c0 -5 -4 -10 -10 -10 -5 0 -10 5 -10 10 0 6 5 10 10 10
6 0 10 -4 10 -10z m-1300 -60 c0 -5 -5 -10 -11 -10 -5 0 -7 5 -4 10 3 6 8 10
11 10 2 0 4 -4 4 -10z m70 -62 c12 -13 16 -24 10 -26 -9 -3 -50 33 -50 45 0
10 22 0 40 -19z m-135 -48 c-3 -5 -10 -10 -16 -10 -5 0 -9 5 -9 10 0 6 7 10
16 10 8 0 12 -4 9 -10z m-155 -14 c0 -3 -4 -8 -10 -11 -5 -3 -10 -1 -10 4 0 6
5 11 10 11 6 0 10 -2 10 -4z m100 -5 c0 -6 -5 -13 -11 -17 -8 -4 -7 -9 2 -15
8 -5 10 -9 4 -9 -5 0 -17 5 -25 10 -12 8 -12 10 -1 10 11 0 11 3 1 15 -10 13
-9 15 9 15 11 0 21 -4 21 -9z m-256 -33 c-3 -5 -13 -8 -22 -6 -10 1 -23 -1
-30 -6 -21 -13 -28 3 -7 17 19 15 68 11 59 -5z m444 2 c-7 -11 -15 -15 -17 -9
-2 6 3 15 10 20 20 12 21 11 7 -11z m-398 -21 c0 -11 -4 -18 -10 -14 -5 3 -7
12 -3 20 7 21 13 19 13 -6z m40 13 c0 -13 -12 -22 -22 -16 -10 6 -1 24 13 24
5 0 9 -4 9 -8z m69 -38 c-9 -11 -15 -12 -23 -4 -8 8 -7 13 4 20 20 12 33 1 19
-16z m176 16 c-3 -5 -13 -10 -21 -10 -8 0 -14 5 -14 10 0 6 9 10 21 10 11 0
17 -4 14 -10z m-76 -16 c18 12 12 0 -11 -20 -12 -10 -18 -14 -15 -7 4 6 2 13
-5 15 -7 3 -8 10 -4 17 7 10 10 10 16 1 4 -7 13 -9 19 -6z m-174 -4 c3 -5 -1
-10 -10 -10 -9 0 -13 5 -10 10 3 6 8 10 10 10 2 0 7 -4 10 -10z m115 -5 c0 -8
-4 -15 -10 -15 -5 0 -10 7 -10 15 0 8 5 15 10 15 6 0 10 -7 10 -15z m-135 -33
c-3 -3 -11 0 -18 7 -9 10 -8 11 6 5 10 -3 15 -9 12 -12z m364 1 c0 -5 -4 -17
-9 -28 -8 -18 -9 -17 -9 8 -1 15 4 27 9 27 6 0 10 -3 9 -7z m-233 -23 c0 -11
-6 -20 -13 -20 -7 0 -13 5 -13 10 0 6 -8 10 -17 10 -15 0 -16 2 -3 10 25 16
46 11 46 -10z m54 -10 c0 -5 -5 -10 -11 -10 -5 0 -7 5 -4 10 3 6 8 10 11 10 2
0 4 -4 4 -10z m-120 -10 c0 -13 -20 -13 -40 0 -12 8 -9 10 13 10 15 0 27 -4
27 -10z m256 -39 c-8 -13 -36 -15 -36 -3 0 4 5 13 12 20 14 14 34 0 24 -17z
m394 -65 c0 -5 -7 -1 -15 10 -8 10 -14 24 -14 29 0 6 6 1 14 -9 8 -11 15 -24
15 -30z m-458 -78 c-7 -7 -12 -8 -12 -2 0 14 12 26 19 19 2 -3 -1 -11 -7 -17z
m-42 -68 c0 -5 -4 -10 -10 -10 -5 0 -10 5 -10 10 0 6 5 10 10 10 6 0 10 -4 10
-10z m-115 -10 c-3 -5 -12 -10 -18 -10 -7 0 -6 4 3 10 19 12 23 12 15 0z m40
1 c3 -5 2 -12 -3 -15 -5 -3 -9 1 -9 9 0 17 3 19 12 6z m65 -26 c0 -6 -6 -19
-12 -28 -12 -15 -16 -15 -40 -3 -15 8 -29 12 -32 8 -3 -3 -6 -2 -6 2 0 9 56
33 76 33 8 0 14 -5 14 -12z m503 -25 c-3 -11 -10 -23 -16 -27 -5 -3 -8 -2 -5
3 3 5 8 17 11 27 9 24 16 22 10 -3z m-539 -42 c-3 -5 -12 -4 -20 3 -19 16 -18
18 6 12 11 -3 17 -9 14 -15z m473 -4 c-3 -3 -12 -4 -19 -1 -8 3 -5 6 6 6 11 1
17 -2 13 -5z m-545 -59 c36 -10 37 -11 25 -35 -8 -14 -11 -32 -9 -39 5 -16 0
-14 -49 17 -20 12 -44 38 -55 57 -10 19 -22 35 -26 35 -5 0 -8 5 -8 10 0 6 19
0 43 -12 23 -13 59 -27 79 -33z m1061 8 c-7 -2 -21 -2 -30 0 -10 3 -4 5 12 5
17 0 24 -2 18 -5z m720 0 c-7 -2 -19 -2 -25 0 -7 3 -2 5 12 5 14 0 19 -2 13
-5z m-1876 -58 c73 -48 100 -88 86 -130 -9 -29 -10 -29 -86 74 -42 56 -74 101
-70 99 5 -2 36 -21 70 -43z m830 23 c-3 -8 -6 -5 -6 6 -1 11 2 17 5 13 3 -3 4
-12 1 -19z m451 -10 c36 -22 62 -55 61 -78 0 -8 -5 -4 -10 9 -11 27 -31 44
-93 79 -26 14 -32 20 -16 16 14 -3 40 -15 58 -26z m-308 7 c-33 -19 -49 -19
-24 0 10 8 26 14 34 14 9 0 4 -6 -10 -14z m-151 -72 c0 -31 -2 -34 -9 -18 -7
17 -9 17 -9 3 -1 -11 -6 -15 -16 -12 -21 8 -19 21 5 29 11 3 20 13 20 21 0 8
2 14 5 14 3 0 5 -17 4 -37z m244 -15 c40 -29 33 -30 -15 -3 -23 13 -45 22 -50
19 -4 -3 -8 0 -8 6 0 15 36 4 73 -22z m195 -12 c12 -1 22 -7 22 -15 0 -9 -6
-11 -17 -6 -10 4 -34 11 -53 15 -32 7 -100 37 -100 45 0 1 28 -6 63 -18 34
-11 72 -21 85 -21z m-1380 15 c3 -8 -1 -12 -9 -9 -7 2 -15 10 -17 17 -3 8 1
12 9 9 7 -2 15 -10 17 -17z m1297 -68 c32 -29 34 -32 10 -17 -16 10 -40 23
-52 29 -13 7 -20 15 -16 18 10 11 16 8 58 -30z m107 23 c14 4 18 2 14 -5 -10
-16 -39 -14 -62 5 -18 14 -18 15 4 4 12 -6 32 -8 44 -4z m-1348 -11 c3 -8 1
-15 -4 -15 -6 0 -10 7 -10 15 0 8 2 15 4 15 2 0 6 -7 10 -15z m1398 -25 c-2
-17 1 -37 8 -45 11 -13 10 -14 -2 -10 -9 4 -23 -1 -32 -10 -18 -19 -21 -13 -6
15 11 20 -13 50 -25 30 -3 -5 -1 -10 6 -10 7 0 10 -2 8 -5 -3 -2 -18 0 -35 4
-23 8 -25 9 -7 10 12 1 26 8 31 17 6 11 11 13 16 5 11 -17 23 -13 29 9 8 31
14 24 9 -10z m-409 -34 c3 3 3 -4 0 -15 -3 -12 -6 -20 -8 -19 -1 2 -12 19 -25
38 l-24 35 25 -23 c14 -12 28 -19 32 -16z m-974 12 c11 -10 13 -10 7 0 -4 6
-4 12 -1 12 11 0 49 -22 64 -37 12 -13 12 -16 0 -24 -13 -8 -35 -13 -51 -10
-21 3 -5 -19 17 -25 14 -3 25 -11 25 -16 0 -6 9 -8 20 -5 11 3 20 4 20 2 0 -2
3 -10 6 -18 4 -10 -1 -15 -13 -14 -10 1 -21 5 -24 10 -3 4 -15 9 -27 12 -12 2
-28 7 -35 10 -6 4 -4 0 5 -8 14 -11 15 -17 5 -31 -21 -28 -50 -10 -45 29 3 26
0 31 -11 27 -12 -4 -11 -1 2 18 9 14 17 29 17 35 0 5 -5 3 -10 -5 -11 -17 -13
-6 -4 28 7 25 14 27 33 10z m126 -8 c3 -5 1 -10 -4 -10 -6 0 -11 5 -11 10 0 6
2 10 4 10 3 0 8 -4 11 -10z m28 -33 c-15 -19 -30 -32 -32 -30 -5 3 49 63 57
63 2 0 -9 -15 -25 -33z m927 -67 c-8 -5 -19 -10 -25 -10 -5 0 -3 5 5 10 8 5
20 10 25 10 6 0 3 -5 -5 -10z m-1003 -56 c2 -7 -6 -10 -22 -7 -14 3 -25 10
-25 15 0 13 43 6 47 -8z m63 -4 c0 -11 -2 -20 -4 -20 -2 0 -6 9 -9 20 -3 11
-1 20 4 20 5 0 9 -9 9 -20z m1665 10 c-28 -12 -37 -12 -30 0 3 6 16 10 28 9
21 0 21 -1 2 -9z m-47 -15 c-7 -7 -171 -36 -176 -30 -2 2 11 6 29 10 19 3 54
10 79 14 56 11 75 12 68 6z m112 -12 c-14 -2 -42 -8 -63 -15 -20 -6 -40 -9
-43 -5 -9 9 55 25 96 25 24 -1 27 -2 10 -5z m-861 -81 c15 -14 14 -15 -2 -9
-10 4 -24 7 -31 7 -7 0 -21 7 -32 15 -18 15 -17 16 15 9 19 -3 42 -14 50 -22z
m-109 -17 c0 -8 -4 -15 -10 -15 -5 0 -7 7 -4 15 4 8 8 15 10 15 2 0 4 -7 4
-15z m1095 5 c3 -5 2 -10 -4 -10 -5 0 -13 5 -16 10 -3 6 -2 10 4 10 5 0 13 -4
16 -10z m-1909 -46 c-4 -9 -9 -15 -11 -12 -3 3 -3 13 1 22 4 9 9 15 11 12 3
-3 3 -13 -1 -22z m919 6 c3 -6 -4 -10 -17 -10 -18 0 -20 2 -8 10 19 12 18 12
25 0z m344 -25 c25 -15 10 -27 -25 -22 -41 7 -49 12 -40 25 6 10 48 8 65 -3z
m-1305 -10 c-4 -8 -10 -15 -15 -15 -4 0 -6 7 -3 15 4 8 10 15 15 15 4 0 6 -7
3 -15z m890 -45 c-6 -6 -10 -3 -10 10 0 13 4 16 10 10 7 -7 7 -13 0 -20z
m1031 20 c3 -5 1 -10 -4 -10 -6 0 -11 5 -11 10 0 6 2 10 4 10 3 0 8 -4 11 -10z
m12 -82 c-3 -8 -6 -5 -6 6 -1 11 2 17 5 13 3 -3 4 -12 1 -19z m-2071 -144 c-4
-9 -9 -15 -11 -12 -3 3 -3 13 1 22 4 9 9 15 11 12 3 -3 3 -13 -1 -22z m54 1
c0 -2 -10 -10 -22 -16 -21 -11 -22 -11 -9 4 13 16 31 23 31 12z m1442 -115
c11 38 18 19 21 -53 l2 -65 -23 26 c-14 14 -22 32 -19 43 3 11 1 16 -5 13 -19
-12 -27 19 -10 42 l17 22 5 -26 6 -27 6 25z m592 -66 c3 -8 2 -12 -4 -9 -6 3
-10 10 -10 16 0 14 7 11 14 -7z m-644 -93 c0 -23 -16 -36 -25 -21 -9 14 1 40
15 40 5 0 10 -9 10 -19z m590 -62 c16 -57 9 -63 -16 -13 -11 24 -16 40 -11 37
6 -4 8 1 4 11 -4 10 -3 15 3 11 5 -3 14 -24 20 -46z m-199 14 c13 -16 12 -17
-3 -4 -17 13 -22 21 -14 21 2 0 10 -8 17 -17z m-54 -19 c-3 -3 -12 -4 -19 -1
-8 3 -5 6 6 6 11 1 17 -2 13 -5z m33 -11 c0 -5 -11 -13 -25 -20 -29 -13 -33
-6 -7 13 19 15 32 18 32 7z m-425 -43 c-4 -12 -9 -19 -12 -17 -3 3 -2 15 2 27
4 12 9 19 12 17 3 -3 2 -15 -2 -27z m585 -97 c0 -7 5 -13 10 -13 6 0 9 -10 9
-22 -1 -17 -2 -19 -6 -5 -2 9 -9 17 -14 17 -5 0 -9 8 -9 18 0 10 -14 31 -31
48 -17 16 -40 43 -51 59 -11 17 5 3 36 -30 30 -33 55 -66 56 -72z m-553 95
c-3 -8 -6 -5 -6 6 -1 11 2 17 5 13 3 -3 4 -12 1 -19z m317 -16 c-12 -9 -27
-27 -33 -39 -13 -25 -51 -31 -51 -9 0 8 5 18 10 21 6 3 10 -2 10 -12 1 -17 1
-17 12 1 14 25 61 66 68 59 3 -2 -5 -12 -16 -21z m210 -242 c3 -14 -14 17 -39
69 -25 52 -45 99 -45 105 1 14 75 -140 84 -174z m-397 139 c-9 -6 -21 -8 -25
-5 -5 3 -21 -3 -37 -14 -15 -10 -34 -16 -40 -13 -7 2 -16 0 -20 -6 -3 -6 -10
-11 -16 -11 -5 0 -4 9 3 19 6 10 17 17 23 15 6 -3 23 2 38 9 32 17 103 22 74
6z m183 -45 c0 -2 -15 -4 -32 -3 -27 0 -29 2 -13 8 18 8 45 4 45 -5z m137 -56
c-3 -8 -6 -5 -6 6 -1 11 2 17 5 13 3 -3 4 -12 1 -19z m-37 -145 c0 -8 -9 0
-50 45 l-45 47 48 -45 c26 -24 47 -45 47 -47z m227 -5 c-3 -7 -5 -2 -5 12 0
14 2 19 5 13 2 -7 2 -19 0 -25z m-195 -28 c-12 -11 -25 -20 -29 -20 -9 1 36
40 45 40 3 0 -4 -9 -16 -20z m58 -30 c-8 -5 -22 -9 -30 -9 -10 0 -8 3 5 9 27
12 43 12 25 0z"/>
<path d="M194 1835 c21 -19 41 -35 44 -35 3 0 -9 16 -28 35 -19 19 -38 35 -44
35 -5 0 7 -16 28 -35z"/>
<path d="M2018 2633 c7 -3 16 -2 19 1 4 3 -2 6 -13 5 -11 0 -14 -3 -6 -6z"/>
<path d="M2094 2625 c-10 -8 -26 -15 -34 -15 -8 0 -24 -13 -34 -28 l-19 -27
24 23 c14 12 30 22 37 22 18 0 62 22 62 32 0 12 -14 10 -36 -7z"/>
<path d="M1920 2620 c0 -13 11 -13 30 0 12 8 11 10 -7 10 -13 0 -23 -4 -23
-10z"/>
<path d="M1715 2590 c38 -17 73 -36 77 -43 4 -7 8 -9 8 -5 0 4 11 3 25 -2 14
-5 25 -6 25 -1 0 10 -132 67 -176 76 -16 3 2 -8 41 -25z"/>
<path d="M1825 2597 c-14 -11 -15 -16 -5 -22 9 -5 11 -4 6 3 -5 8 5 12 33 12
23 0 41 5 41 10 0 15 -53 12 -75 -3z"/>
<path d="M1690 2573 c0 -17 17 -30 44 -35 l28 -6 -28 24 c-30 24 -44 29 -44
17z"/>
<path d="M2050 2571 c0 -5 -3 -17 -7 -26 -5 -15 -3 -16 15 -6 13 7 19 17 16
26 -7 16 -24 21 -24 6z"/>
<path d="M1630 2556 c0 -17 36 -40 43 -29 3 5 -6 16 -19 26 -20 15 -24 16 -24
3z"/>
<path d="M1947 2528 c3 -13 10 -28 15 -35 6 -7 5 -14 -3 -18 -7 -5 -21 5 -36
24 -13 17 -33 31 -44 31 -25 0 -24 -6 7 -43 32 -38 17 -48 -32 -22 -23 12 -37
14 -49 8 -14 -8 -9 -11 24 -17 27 -4 41 -11 41 -22 0 -8 -4 -13 -10 -9 -11 7
-60 -34 -60 -51 0 -7 5 -14 11 -16 6 -2 1 -12 -11 -23 l-22 -20 7 38 c5 23 3
37 -3 37 -6 0 -12 -10 -14 -22 -4 -33 -43 -36 -68 -6 -29 35 -24 15 20 -75 54
-112 53 -111 79 -98 26 14 29 -3 4 -18 -13 -8 -4 -9 36 -5 39 5 52 3 47 -5 -4
-6 -12 -9 -17 -6 -5 4 -9 1 -9 -4 0 -13 27 -15 34 -2 3 4 22 11 42 14 36 6 58
-5 60 -30 1 -7 2 -18 3 -23 1 -13 63 -8 79 7 14 14 16 27 2 18 -5 -3 -10 -2
-10 3 0 4 15 16 33 25 l32 16 -45 -2 c-40 -2 -45 -4 -43 -25 3 -20 1 -21 -17
-10 -11 7 -16 14 -10 16 13 5 13 32 0 32 -5 0 -10 5 -10 11 0 6 6 9 13 6 16
-6 60 11 53 21 -3 5 8 6 25 4 l29 -4 0 115 c0 102 -2 116 -17 120 -17 4 -17 5
0 6 24 1 22 21 -3 21 -11 0 -20 -6 -20 -14 0 -16 -45 -66 -60 -66 -5 0 -10 9
-10 20 0 11 -5 19 -11 18 -6 -2 -14 3 -17 11 -3 8 0 11 6 7 12 -7 76 44 67 53
-11 10 -55 12 -55 1 0 -5 8 -10 18 -11 12 0 13 -2 3 -6 -8 -3 -20 3 -28 13
-11 15 -15 16 -22 5 -7 -11 -10 -9 -16 8 -9 28 -25 27 -18 -1z m-27 -137 c0
-10 -50 -25 -57 -17 -3 2 -3 8 0 13 7 12 57 15 57 4z m-80 -5 c0 -3 -4 -8 -10
-11 -5 -3 -10 -1 -10 4 0 6 5 11 10 11 6 0 10 -2 10 -4z m7 -48 c-3 -7 -5 -2
-5 12 0 14 2 19 5 13 2 -7 2 -19 0 -25z m248 -16 c-3 -3 -11 0 -18 7 -9 10 -8
11 6 5 10 -3 15 -9 12 -12z m-352 -8 c3 -3 3 -13 0 -21 -5 -12 -7 -12 -14 -1
-15 23 -4 40 14 22z m30 -41 c-6 -17 13 -17 21 0 5 10 7 10 12 0 8 -18 31 -16
38 3 5 13 9 14 21 4 8 -7 33 -11 58 -9 39 4 43 2 40 -16 -4 -19 -4 -19 10 -2
8 10 19 17 23 16 5 -1 11 0 14 1 13 7 90 5 90 -2 0 -7 -30 -12 -57 -9 -6 1
-14 -8 -18 -19 -4 -14 -15 -20 -36 -20 -16 0 -29 -4 -29 -10 0 -5 8 -10 17
-10 9 0 14 -3 10 -6 -11 -12 -69 7 -63 21 5 14 -15 27 -51 31 -14 2 -23 -3
-23 -11 0 -8 -5 -17 -11 -21 -8 -4 -9 1 -4 17 7 20 5 22 -6 12 -15 -12 -70
-13 -62 0 3 4 -1 14 -7 22 -8 10 -9 15 -2 15 6 0 9 8 6 18 -5 13 -4 14 4 3 6
-8 8 -20 5 -28z m144 21 c-3 -3 -12 -4 -19 -1 -8 3 -5 6 6 6 11 1 17 -2 13 -5z
m-17 -78 c0 -7 -8 -16 -17 -20 -10 -3 -25 -9 -33 -13 -8 -3 -4 6 10 20 28 30
40 34 40 13z m43 -43 c-7 -2 -21 -2 -30 0 -10 3 -4 5 12 5 17 0 24 -2 18 -5z"/>
<path d="M1786 2509 c-15 -9 -16 -13 -5 -20 21 -13 25 -11 25 11 0 11 0 20 -1
20 0 0 -8 -5 -19 -11z"/>
<path d="M1835 2500 c10 -11 23 -20 28 -20 6 0 2 9 -8 20 -10 11 -23 20 -28
20 -6 0 -2 -9 8 -20z"/>
<path d="M2056 2485 c-3 -8 -1 -15 3 -15 5 0 11 7 15 15 3 8 1 15 -3 15 -5 0
-11 -7 -15 -15z"/>
<path d="M1780 2420 c-13 -8 -12 -10 3 -10 9 0 17 5 17 10 0 12 -1 12 -20 0z"/>
<path d="M1676 2412 c-2 -4 11 -6 30 -4 19 2 34 6 34 8 0 8 -59 4 -64 -4z"/>
<path d="M1460 2390 c0 -5 9 -10 21 -10 11 0 17 5 14 10 -3 6 -13 10 -21 10
-8 0 -14 -4 -14 -10z"/>
<path d="M1 2284 c1 -84 3 -94 18 -89 9 4 32 11 51 17 19 5 49 16 67 24 17 8
35 14 41 14 5 0 15 6 21 14 15 18 14 18 -107 73 l-93 42 2 -95z"/>
<path d="M1730 2365 c-10 -12 -10 -15 4 -15 9 0 16 7 16 15 0 8 -2 15 -4 15
-2 0 -9 -7 -16 -15z"/>
<path d="M190 2241 c-19 -11 -38 -17 -42 -15 -4 2 -9 0 -13 -6 -3 -5 -15 -10
-25 -10 -10 0 -39 -9 -64 -20 -38 -16 -46 -24 -46 -45 0 -23 3 -25 28 -19 36
9 43 14 37 25 -4 5 1 9 9 9 9 0 16 -4 16 -9 0 -6 19 -4 43 4 23 7 72 21 110
31 66 18 91 44 43 44 -13 0 -29 7 -36 15 -15 19 -17 18 -60 -4z m-95 -61 c-3
-4 0 -11 5 -13 6 -3 5 -4 -2 -3 -7 1 -15 11 -16 21 -3 11 0 15 7 10 6 -3 9
-10 6 -15z"/>
<path d="M242 2127 c-40 -17 -69 -33 -64 -35 5 -1 35 9 68 24 32 14 70 28 84
31 33 6 39 13 9 13 -13 -1 -57 -15 -97 -33z"/>
<path d="M1808 2138 c9 -9 15 -9 24 0 9 9 7 12 -12 12 -19 0 -21 -3 -12 -12z"/>
<path d="M1841 2111 c-7 -5 -9 -11 -4 -14 5 -3 15 -2 22 2 7 5 9 11 4 14 -5 3
-15 2 -22 -2z"/>
<path d="M2060 2079 c-8 -5 -25 -9 -37 -9 -13 0 -23 -4 -23 -9 0 -8 79 4 88
14 9 8 -16 13 -28 4z"/>
<path d="M2108 2063 c7 -3 16 -2 19 1 4 3 -2 6 -13 5 -11 0 -14 -3 -6 -6z"/>
<path d="M66 2044 c-3 -7 3 -10 15 -7 27 7 34 22 9 20 -10 -1 -22 -7 -24 -13z"/>
<path d="M1 2024 c0 -11 3 -14 6 -6 3 7 2 16 -1 19 -3 4 -6 -2 -5 -13z"/>
<path d="M1917 2026 c-4 -10 -5 -21 -2 -24 9 -9 17 6 13 25 -3 17 -4 17 -11
-1z"/>
<path d="M1954 2028 c3 -11 -6 -27 -27 -44 -20 -18 -25 -25 -12 -20 11 4 41
10 68 13 26 3 47 10 47 15 0 5 -9 6 -20 3 -19 -6 -25 3 -21 28 1 5 -4 5 -10 1
-6 -3 -16 0 -21 7 -8 11 -9 10 -4 -3z"/>
<path d="M2020 2032 c0 -5 7 -9 15 -9 8 0 15 4 15 9 0 4 -7 8 -15 8 -8 0 -15
-4 -15 -8z"/>
<path d="M2110 2031 c0 -6 5 -13 10 -16 6 -3 10 1 10 9 0 9 -4 16 -10 16 -5 0
-10 -4 -10 -9z"/>
<path d="M2066 2008 c3 -5 10 -6 15 -3 13 9 11 12 -6 12 -8 0 -12 -4 -9 -9z"/>
<path d="M13 2003 c-25 -10 -12 -22 20 -21 19 1 39 -2 45 -6 7 -4 12 -5 12 -2
0 4 -61 38 -64 35 -1 0 -7 -3 -13 -6z"/>
<path d="M2040 1990 c0 -5 5 -10 10 -10 6 0 10 5 10 10 0 6 -4 10 -10 10 -5 0
-10 -4 -10 -10z"/>
<path d="M2098 1973 c6 -2 18 -2 25 0 6 3 1 5 -13 5 -14 0 -19 -2 -12 -5z"/>
<path d="M2083 1913 c-14 -3 -20 -9 -16 -19 4 -10 0 -12 -13 -7 -17 6 -17 5
-6 -10 8 -9 11 -20 8 -25 -3 -5 6 -14 20 -21 31 -14 44 -14 44 -1 0 6 -8 10
-17 8 -10 -2 -18 2 -18 9 0 6 -3 14 -7 18 -13 13 4 35 28 35 13 0 24 5 24 10
0 10 -8 11 -47 3z"/>
<path d="M2096 1866 c3 -9 11 -16 16 -16 13 0 5 23 -10 28 -7 2 -10 -2 -6 -12z"/>
<path d="M2073 1784 c0 -6 9 -9 19 -6 10 2 18 8 18 13 0 4 -8 7 -18 6 -10 0
-19 -6 -19 -13z"/>
<path d="M2098 1723 c-10 -2 -18 -9 -18 -14 0 -6 10 -5 23 2 37 20 36 23 -5
12z"/>
<path d="M1975 1650 c-27 -5 -77 -9 -110 -11 -53 -2 -55 -3 -20 -8 l40 -5 -45
-7 -45 -7 50 3 c28 2 70 8 95 14 25 6 72 15 105 20 47 7 52 8 20 8 -22 0 -62
-3 -90 -7z"/>
<path d="M645 1630 c3 -5 8 -10 11 -10 2 0 4 5 4 10 0 6 -5 10 -11 10 -5 0 -7
-4 -4 -10z"/>
<path d="M1640 1627 c-14 -7 -26 -22 -27 -34 -2 -19 1 -21 20 -15 12 5 48 7
80 5 32 -2 66 1 75 7 13 7 4 9 -30 6 -27 -2 -48 0 -48 4 0 4 -6 8 -12 7 -32
-1 -49 4 -43 12 6 11 77 2 86 -11 3 -4 14 -1 25 7 18 13 16 14 -28 15 -25 0
-52 2 -60 5 -7 2 -24 -1 -38 -8z"/>
<path d="M596 1598 c-9 -12 -16 -26 -16 -30 0 -16 18 -7 34 16 20 31 3 44 -18
14z"/>
<path d="M2068 1578 c10 -13 10 -17 0 -21 -9 -4 -9 -6 -1 -6 20 -2 24 16 5 30
-15 13 -16 12 -4 -3z"/>
<path d="M535 1544 c-9 -15 -12 -23 -6 -20 11 7 35 46 28 46 -3 0 -12 -12 -22
-26z"/>
<path d="M583 1528 c-26 -33 -25 -38 6 -36 25 2 31 7 31 25 0 25 -21 31 -37
11z"/>
<path d="M30 1511 c-11 -8 -5 -12 28 -17 23 -4 42 -11 42 -17 0 -6 8 -4 17 6
9 9 15 19 12 21 -11 11 -85 16 -99 7z m53 -8 c-7 -2 -19 -2 -25 0 -7 3 -2 5
12 5 14 0 19 -2 13 -5z"/>
<path d="M2093 1505 c0 -8 2 -15 4 -15 3 0 11 7 19 15 14 13 13 15 -4 15 -10
0 -19 -7 -19 -15z"/>
<path d="M725 1491 c-3 -6 -11 -9 -16 -6 -20 13 -44 -5 -45 -35 -1 -39 12 -39
20 1 4 21 11 29 19 26 16 -6 44 9 35 18 -3 4 -9 1 -13 -4z"/>
<path d="M768 1489 c-10 -5 -18 -20 -18 -32 0 -21 1 -21 13 3 8 14 19 24 25
23 7 -2 12 2 12 7 0 13 -10 12 -32 -1z"/>
<path d="M815 1470 c3 -5 8 -10 11 -10 2 0 4 5 4 10 0 6 -5 10 -11 10 -5 0 -7
-4 -4 -10z"/>
<path d="M588 1453 c7 -3 16 -2 19 1 4 3 -2 6 -13 5 -11 0 -14 -3 -6 -6z"/>
<path d="M520 1440 c-21 -13 -10 -18 27 -13 18 3 30 9 27 14 -7 12 -35 11 -54
-1z"/>
<path d="M770 1429 c-7 -11 -10 -23 -7 -25 2 -2 9 7 15 21 14 30 7 33 -8 4z"/>
<path d="M616 1413 c-6 -14 -5 -15 5 -6 7 7 10 15 7 18 -3 3 -9 -2 -12 -12z"/>
<path d="M687 1412 c-18 -20 -23 -62 -8 -62 5 0 7 10 4 23 -3 12 -2 19 2 15 4
-4 14 0 21 10 26 34 9 46 -19 14z"/>
<path d="M731 1393 c-1 -6 -4 -20 -7 -30 -5 -17 -5 -17 6 0 6 10 9 23 6 30 -3
9 -5 9 -5 0z"/>
<path d="M1222 1373 c-6 -2 -10 -8 -8 -11 2 -4 -15 -20 -39 -37 -44 -29 -65
-65 -40 -65 8 0 17 5 20 10 4 6 11 8 16 5 5 -4 9 -1 9 5 0 6 11 16 25 22 17 7
21 14 14 19 -12 7 31 41 58 45 8 2 17 5 21 8 7 7 -58 6 -76 -1z"/>
<path d="M741 1344 c0 -11 3 -14 6 -6 3 7 2 16 -1 19 -3 4 -6 -2 -5 -13z"/>
<path d="M922 1340 c0 -14 2 -19 5 -12 2 6 2 18 0 25 -3 6 -5 1 -5 -13z"/>
<path d="M878 1334 c-3 -5 -8 -30 -12 -55 -6 -38 -4 -48 10 -53 20 -8 17 -10
31 37 9 31 8 40 -6 59 -10 12 -20 17 -23 12z"/>
<path d="M1265 1330 c-8 -13 5 -13 25 0 13 8 13 10 -2 10 -9 0 -20 -4 -23 -10z"/>
<path d="M670 1314 c0 -8 5 -12 10 -9 6 4 8 11 5 16 -9 14 -15 11 -15 -7z"/>
<path d="M941 1314 c0 -11 3 -14 6 -6 3 7 2 16 -1 19 -3 4 -6 -2 -5 -13z"/>
<path d="M627 1305 c-4 -11 -10 -27 -13 -35 -3 -8 1 -5 11 8 9 12 15 28 13 34
-3 7 -7 4 -11 -7z"/>
<path d="M840 1309 c0 -5 5 -7 10 -4 6 3 10 8 10 11 0 2 -4 4 -10 4 -5 0 -10
-5 -10 -11z"/>
<path d="M820 1293 c0 -5 7 -18 15 -29 13 -18 14 -18 8 4 -5 22 -23 41 -23 25z"/>
<path d="M570 1280 c0 -5 5 -10 11 -10 5 0 7 5 4 10 -3 6 -8 10 -11 10 -2 0
-4 -4 -4 -10z"/>
<path d="M1071 1264 c-18 -8 -31 -17 -28 -20 9 -9 55 8 61 22 3 8 4 14 3 13
-1 0 -17 -7 -36 -15z"/>
<path d="M937 1240 c-4 -15 0 -20 14 -20 22 0 25 13 5 29 -11 9 -15 7 -19 -9z"/>
<path d="M790 1236 c0 -2 7 -7 16 -10 8 -3 12 -2 9 4 -6 10 -25 14 -25 6z"/>
<path d="M1057 1210 c3 -11 9 -17 14 -14 14 8 10 34 -5 34 -9 0 -12 -7 -9 -20z"/>
<path d="M1100 1221 c0 -5 -3 -18 -6 -28 -6 -16 -5 -16 9 2 19 23 21 35 7 35
-5 0 -10 -4 -10 -9z"/>
<path d="M1000 1213 c0 -7 -10 -12 -22 -11 -43 2 -58 -2 -58 -15 0 -22 22 -38
36 -26 9 8 11 5 7 -10 -5 -19 -7 -19 -29 -4 -19 12 -24 13 -25 2 -2 -24 -5
-33 -17 -63 -7 -16 -10 -31 -8 -34 3 -3 8 3 12 12 8 22 63 47 97 44 19 -2 27
-8 28 -23 0 -18 1 -18 10 3 6 17 3 39 -11 80 -11 31 -19 52 -20 45z"/>
<path d="M475 1200 c-3 -5 1 -10 9 -10 9 0 16 5 16 10 0 6 -4 10 -9 10 -6 0
-13 -4 -16 -10z"/>
<path d="M585 1202 c-60 -13 -88 -72 -34 -72 47 0 89 20 95 46 9 36 0 38 -34
9 -24 -20 -31 -22 -35 -11 -4 10 -1 13 7 10 8 -3 17 0 21 6 9 15 5 17 -20 12z"/>
<path d="M680 1186 c0 -25 18 -35 34 -19 3 4 14 8 24 10 9 1 37 7 62 12 l45 8
-60 0 c-33 0 -70 3 -82 7 -20 6 -23 4 -23 -18z"/>
<path d="M853 1183 c-26 -5 -31 -23 -7 -23 8 0 13 -4 9 -9 -3 -5 -1 -12 5 -16
5 -3 11 -3 11 2 3 16 6 53 5 52 0 -1 -11 -4 -23 -6z"/>
<path d="M803 1155 c0 -8 4 -15 9 -15 4 0 8 7 8 15 0 8 -4 15 -8 15 -5 0 -9
-7 -9 -15z"/>
<path d="M765 1150 c3 -5 8 -10 11 -10 2 0 4 5 4 10 0 6 -5 10 -11 10 -5 0 -7
-4 -4 -10z"/>
<path d="M693 1143 c-13 -2 -23 -8 -23 -13 0 -5 -7 -16 -16 -25 -15 -15 -15
-17 2 -30 17 -13 20 -11 35 22 9 19 23 39 30 44 14 9 10 9 -28 2z"/>
<path d="M546 1113 c-15 -4 -17 -11 -13 -41 4 -19 10 -39 15 -44 5 -5 7 5 4
23 -3 22 -1 30 7 25 6 -4 11 -2 11 3 0 6 -6 11 -12 12 -7 0 0 5 16 9 16 5 34
6 39 3 6 -3 7 -1 3 5 -7 12 -35 14 -70 5z"/>
<path d="M844 1111 c4 -6 3 -18 -4 -26 -8 -10 -8 -15 1 -21 8 -4 9 -3 5 4 -4
7 -2 12 3 12 15 0 14 27 -1 36 -7 4 -8 3 -4 -5z"/>
<path d="M261 1073 c12 -21 66 -100 118 -176 53 -76 95 -141 95 -145 -1 -4
-12 -12 -25 -19 -17 -9 -24 -22 -25 -44 -2 -30 -17 -49 -39 -49 -5 0 -3 5 5
10 12 8 10 10 -10 10 -18 0 -48 -20 -95 -63 l-69 -63 63 -14 c53 -11 67 -11
85 0 19 12 20 11 8 -2 -11 -13 -6 -17 32 -27 25 -6 48 -16 52 -23 5 -8 2 -9
-11 -5 -59 23 -106 29 -123 16 -15 -12 -16 -12 -4 2 11 14 8 17 -19 23 -17 3
-40 6 -50 6 -18 0 -18 -2 -2 -35 14 -29 19 -33 32 -22 10 8 13 8 8 0 -4 -6 -1
-14 5 -16 19 -8 -54 0 -74 8 -10 4 -15 11 -12 16 3 5 0 9 -5 9 -6 0 -11 7 -11
16 0 14 -3 14 -15 4 -18 -15 -19 -27 -2 -33 6 -2 4 -3 -5 -2 -10 2 -18 -1 -18
-7 0 -5 -10 -6 -22 -2 -23 7 -93 15 -86 10 14 -13 49 -26 44 -17 -4 6 -2 11 3
11 6 0 11 -9 11 -20 0 -22 -4 -24 -28 -11 -9 4 -30 11 -47 15 l-30 8 23 -25
c34 -36 120 -80 140 -72 13 5 5 11 -28 22 -25 8 -49 20 -55 25 -7 8 -5 9 5 6
8 -3 50 -15 93 -28 78 -23 108 -45 40 -29 -54 12 -65 -5 -25 -39 17 -15 32
-30 32 -34 0 -10 -164 74 -173 89 -4 7 -14 13 -22 13 -7 0 -16 8 -18 18 -3 9
-5 0 -6 -20 -1 -29 4 -41 23 -53 13 -9 27 -23 30 -31 5 -13 3 -13 -16 1 -36
24 -39 17 -7 -15 17 -16 28 -34 24 -39 -3 -5 -1 -12 5 -16 9 -6 15 8 11 29 -2
11 121 -3 134 -16 7 -7 2 -9 -15 -5 -14 3 -43 9 -64 13 l-39 7 20 -29 c26 -37
45 -74 38 -74 -2 0 -16 18 -30 40 -14 23 -30 38 -36 34 -6 -4 -5 -12 3 -22 8
-10 0 -7 -19 6 -18 13 -32 28 -30 34 1 7 -6 13 -15 15 -15 4 -17 -8 -17 -96 0
-55 4 -112 10 -125 l11 -24 214 0 c153 0 225 4 252 14 20 7 30 13 20 14 -30 0
-8 34 33 52 33 14 38 14 29 3 -7 -8 -20 -15 -29 -16 -11 0 -10 -3 7 -11 13 -7
22 -20 22 -35 0 -14 6 -23 15 -23 8 0 14 3 14 7 -3 21 3 24 24 11 15 -10 54
-15 127 -15 58 -1 98 1 90 4 -8 2 -22 7 -30 10 -22 9 -28 10 -50 12 -41 2 -18
18 50 32 l69 14 -30 60 c-17 33 -42 75 -56 93 -21 28 -27 31 -41 20 -15 -12
-16 -11 -4 4 14 17 9 38 -9 38 -6 0 -8 -4 -5 -8 3 -5 -8 -6 -24 -4 -21 3 -31
-1 -40 -18 -14 -27 -6 -37 15 -20 13 11 14 10 9 -4 -4 -11 2 -27 17 -44 l24
-26 -27 17 -26 16 -31 -47 c-34 -52 -43 -49 -10 4 11 19 19 40 16 47 -2 6 -13
-6 -25 -28 -12 -22 -21 -36 -22 -32 0 4 7 21 15 37 14 28 14 30 -14 49 -15 11
-31 17 -35 14 -4 -4 -4 0 -1 10 6 14 9 15 22 2 17 -18 37 -20 27 -3 -4 7 -3 8
5 4 6 -4 8 -12 5 -18 -4 -7 -2 -8 5 -4 6 4 18 22 25 41 11 26 19 32 34 28 11
-2 23 1 27 7 13 22 115 -109 159 -203 9 -20 22 -35 27 -31 7 4 7 10 1 16 -6 6
-8 17 -5 24 3 8 -1 14 -11 14 -9 0 -16 4 -16 10 0 5 5 9 11 7 11 -2 14 147 3
165 -3 4 -16 8 -28 8 -13 0 -29 7 -36 15 -11 13 -7 15 23 15 20 0 39 5 43 12
5 8 -5 9 -37 5 l-44 -5 39 12 39 12 -2 85 c-1 47 -4 94 -6 104 -2 11 -4 36 -5
55 l-2 35 -15 -35 c-12 -28 -13 -38 -2 -55 11 -18 10 -19 -4 -7 -18 15 -19 14
-41 -58 -10 -30 -22 -65 -28 -77 l-11 -23 -15 21 c-11 16 -13 38 -8 93 9 95
12 115 20 154 8 32 7 33 -13 21 -11 -7 -24 -10 -28 -5 -4 4 -1 12 7 16 46 28
46 28 25 44 -11 9 -23 16 -27 16 -10 0 -21 -66 -14 -79 4 -5 -3 -15 -14 -21
-11 -6 -18 -15 -15 -20 3 -5 -1 -26 -10 -46 -14 -34 -14 -38 6 -68 l21 -31
-26 30 c-14 17 -24 37 -21 45 17 59 17 70 1 64 -19 -7 -21 0 -3 18 15 15 57
99 57 114 0 5 -9 15 -20 22 -18 11 -25 10 -51 -8 -16 -12 -27 -26 -24 -31 4
-5 -1 -19 -11 -31 -14 -20 -16 -20 -9 -3 12 35 10 40 -12 37 -16 -2 -23 2 -23
12 0 9 -9 16 -20 16 -11 0 -20 -5 -20 -11 0 -8 -4 -8 -14 0 -11 9 -15 9 -19
-1 -3 -8 -9 -3 -15 13 -6 14 -25 40 -42 58 -32 32 -84 100 -154 204 -44 64
-59 76 -25 20z m442 -289 c11 -11 -4 -33 -19 -27 -8 3 -14 1 -14 -4 0 -5 -7
-10 -15 -10 -19 0 -19 3 3 26 18 20 34 25 45 15z m-53 -166 c0 -18 -26 5 -27
23 -2 21 -1 21 12 3 8 -11 15 -22 15 -26z m-174 -4 c-4 -9 -9 -15 -11 -12 -3
3 -3 13 1 22 4 9 9 15 11 12 3 -3 3 -13 -1 -22z m-106 -4 c0 -5 6 -10 14 -10
8 0 18 -5 22 -12 4 -7 3 -8 -4 -4 -7 4 -12 2 -12 -4 0 -6 -5 -8 -12 -4 -8 5
-9 2 -5 -9 9 -25 2 -21 -17 8 -16 25 -14 45 5 45 5 0 9 -4 9 -10z m197 -67
c-3 -10 -5 -4 -5 12 0 17 2 24 5 18 2 -7 2 -21 0 -30z m-92 -170 c11 -7 40
-13 66 -13 26 0 64 -7 85 -17 38 -16 38 -16 14 -24 -37 -10 -52 -10 -45 1 3 6
-3 10 -14 10 -27 0 -26 -7 2 -31 12 -10 16 -18 10 -19 -7 0 -13 4 -13 8 0 4
-14 16 -31 26 -24 14 -28 21 -18 27 10 6 5 9 -16 11 -16 1 -39 2 -50 3 -11 0
-23 -4 -27 -9 -4 -6 -15 0 -27 15 -11 13 -20 20 -20 14 -1 -18 40 -61 45 -48
3 7 12 9 20 6 8 -3 14 0 14 6 0 6 23 -5 50 -25 28 -20 50 -40 50 -46 0 -10 -9
-6 -52 24 -18 13 -28 15 -28 7 0 -8 -7 -5 -20 6 -11 10 -23 15 -26 12 -9 -8
57 -83 69 -79 22 7 45 -9 40 -28 -3 -11 -10 -20 -15 -20 -6 0 -8 -7 -4 -15 11
-31 -23 -14 -69 34 -52 54 -85 103 -85 126 0 14 -30 21 -70 17 -18 -2 -142 29
-137 34 2 2 38 0 80 -5 55 -6 91 -5 125 4 49 12 64 11 97 -12z m243 -23 c-7
-10 -14 -17 -17 -15 -4 4 18 35 25 35 2 0 -1 -9 -8 -20z m-358 -42 c-1 -13 -7
-40 -14 -60 -10 -27 -10 -38 -2 -42 6 -2 3 -5 -6 -5 -10 -1 -26 -11 -38 -23
-11 -12 -22 -20 -24 -17 -14 15 -6 52 24 107 35 63 60 80 60 40z m515 -8 c-3
-5 -14 -10 -23 -10 -15 0 -15 2 -2 10 20 13 33 13 25 0z m-615 -40 c0 -5 -7
-10 -16 -10 -8 0 -12 5 -9 10 3 6 10 10 16 10 5 0 9 -4 9 -10z m507 -72 c-3
-7 -5 -2 -5 12 0 14 2 19 5 13 2 -7 2 -19 0 -25z m-357 14 c0 -4 -9 -13 -20
-20 -19 -12 -20 -11 -8 8 13 20 28 27 28 12z m52 -39 c18 -16 17 -18 -19 -55
-43 -44 -49 -46 -56 -18 -4 18 -2 20 16 14 l22 -6 -22 24 c-21 23 -22 25 -6
41 22 21 41 22 65 0z m93 -23 c3 -5 1 -10 -4 -10 -6 0 -11 5 -11 10 0 6 2 10
4 10 3 0 8 -4 11 -10z m212 -6 c4 -11 14 -14 32 -11 15 3 33 2 39 -2 8 -5 -2
-8 -24 -9 -21 -1 -41 -7 -46 -14 -8 -13 -10 -8 -12 22 -1 10 -17 17 -51 21
l-50 6 53 1 c40 2 54 -2 59 -14z m56 9 c-7 -2 -21 -2 -30 0 -10 3 -4 5 12 5
17 0 24 -2 18 -5z m-454 -59 c15 -41 3 -58 -33 -50 -11 3 -26 0 -33 -6 -14
-11 -63 -3 -63 10 0 5 14 7 30 4 25 -4 30 -1 30 17 0 13 5 19 14 15 16 -6 31
40 19 59 -5 9 -4 9 8 0 8 -6 21 -28 28 -49z m238 24 c-3 -8 -6 -5 -6 6 -1 11
2 17 5 13 3 -3 4 -12 1 -19z m-111 -24 c-4 -9 -9 -15 -11 -12 -3 3 -3 13 1 22
4 9 9 15 11 12 3 -3 3 -13 -1 -22z m232 1 c6 -14 10 -25 7 -25 -2 0 -15 11
-29 25 -22 21 -23 25 -7 25 10 0 23 -11 29 -25z m-73 6 c-3 -6 3 -14 12 -20
16 -9 14 -10 -9 -11 -30 0 -35 9 -16 28 14 14 21 16 13 3z m1 -66 c16 -12 16
-14 3 -15 -9 0 -22 7 -29 15 -16 19 0 19 26 0z"/>
<path d="M475 320 c3 -5 8 -10 11 -10 2 0 4 5 4 10 0 6 -5 10 -11 10 -5 0 -7
-4 -4 -10z"/>
<path d="M1050 1079 c0 -11 4 -18 10 -14 5 3 7 12 3 20 -7 21 -13 19 -13 -6z"/>
<path d="M1090 1095 c0 -5 5 -17 10 -25 5 -8 10 -10 10 -5 0 6 -5 17 -10 25
-5 8 -10 11 -10 5z"/>
<path d="M772 1058 c-17 -11 -30 -24 -26 -29 6 -11 35 3 54 26 19 23 9 24 -28
3z"/>
<path d="M934 1059 c-9 -16 37 -62 50 -49 16 16 25 11 18 -12 -4 -16 -2 -19 8
-13 10 6 12 4 7 -7 -3 -10 5 -26 22 -42 32 -30 51 -23 22 8 -11 12 -26 39 -33
60 -10 32 -20 42 -50 52 -25 8 -40 9 -44 3z"/>
<path d="M2042 1038 c38 -32 88 -61 88 -50 0 5 -10 14 -22 20 -13 6 -39 21
-58 32 l-35 22 27 -24z"/>
<path d="M826 1033 c-6 -14 -5 -15 5 -6 7 7 10 15 7 18 -3 3 -9 -2 -12 -12z"/>
<path d="M893 1030 c-17 -13 -19 -19 -9 -23 7 -3 19 -1 27 3 8 6 16 4 21 -3 4
-6 9 -9 12 -7 2 3 -3 15 -12 27 -17 21 -18 21 -39 3z"/>
<path d="M1060 1046 c0 -4 10 -27 21 -50 37 -71 39 -76 39 -83 0 -5 -4 -2 -9
5 -7 11 -9 11 -14 -1 -4 -11 3 -17 23 -22 22 -5 29 -13 34 -41 4 -19 11 -32
16 -29 4 3 6 -3 4 -13 -3 -9 -1 -28 3 -40 8 -22 9 -22 23 12 7 20 21 38 29 41
19 7 56 55 42 55 -6 0 -19 -10 -31 -22 -11 -12 -20 -18 -20 -14 0 5 -7 3 -15
-4 -8 -7 -15 -8 -15 -4 0 5 8 14 19 21 17 11 67 73 59 73 -11 0 -67 -48 -62
-53 3 -3 -4 -3 -15 0 -17 4 -20 2 -14 -12 4 -13 3 -16 -6 -11 -8 5 -10 18 -6
33 4 18 2 23 -7 18 -7 -4 -2 3 11 15 17 14 21 24 14 31 -7 7 -15 4 -26 -11 -9
-13 -17 -17 -22 -11 -3 6 0 11 7 11 9 0 9 3 -2 10 -8 5 -11 10 -6 10 5 0 3 7
-4 15 -6 8 -9 18 -6 23 3 5 -3 17 -14 27 -15 13 -20 14 -20 5 0 -9 -5 -7 -15
6 -8 10 -15 15 -15 10z"/>
<path d="M15 1020 c-10 -11 -15 -23 -12 -27 4 -3 7 -1 7 6 0 7 5 9 12 5 6 -4
8 -3 4 4 -3 5 0 12 6 15 7 2 10 7 7 11 -3 3 -14 -3 -24 -14z"/>
<path d="M768 990 l-33 -32 35 24 c19 12 37 24 39 25 2 2 2 6 -1 9 -4 3 -21
-9 -40 -26z"/>
<path d="M1200 999 c-6 -11 -10 -25 -8 -30 2 -5 8 4 15 21 13 34 9 40 -7 9z"/>
<path d="M1253 990 c0 -19 5 -26 13 -23 15 6 14 41 -1 47 -7 2 -12 -7 -12 -24z"/>
<path d="M861 968 c-11 -30 -11 -31 8 -14 11 10 17 24 14 32 -7 20 -10 18 -22
-18z"/>
<path d="M231 954 c0 -11 3 -14 6 -6 3 7 2 16 -1 19 -3 4 -6 -2 -5 -13z"/>
<path d="M802 958 c-7 -7 -12 -17 -12 -23 0 -6 -16 -26 -35 -45 -20 -19 -33
-40 -30 -48 2 -7 1 -10 -4 -7 -5 3 -12 1 -16 -5 -3 -5 0 -10 8 -10 16 0 44 28
49 49 2 8 17 27 33 42 17 17 24 29 16 29 -11 0 -11 3 -1 15 15 18 9 20 -8 3z"/>
<path d="M751 934 c-19 -25 -27 -44 -17 -44 2 0 13 16 25 35 24 42 21 45 -8 9z"/>
<path d="M61 934 c0 -11 3 -14 6 -6 3 7 2 16 -1 19 -3 4 -6 -2 -5 -13z"/>
<path d="M1442 920 c0 -14 2 -19 5 -12 2 6 2 18 0 25 -3 6 -5 1 -5 -13z"/>
<path d="M1014 906 c-8 -18 -7 -22 7 -22 10 0 16 3 13 7 -2 4 1 9 7 11 8 3 7
7 -3 15 -10 9 -16 7 -24 -11z"/>
<path d="M840 890 c0 -16 5 -30 10 -30 6 0 10 -16 10 -37 0 -51 14 -32 17 25
2 34 0 43 -7 32 -10 -15 -14 -8 -11 23 1 9 -3 17 -8 17 -6 0 -11 -13 -11 -30z"/>
<path d="M963 898 c-5 -7 -15 -26 -22 -42 -10 -25 -10 -28 2 -17 8 6 18 23 21
37 4 15 11 22 18 18 7 -4 8 -3 4 4 -9 15 -11 15 -23 0z"/>
<path d="M1080 866 c0 -14 5 -26 10 -26 6 0 10 9 10 19 0 11 -4 23 -10 26 -6
4 -10 -5 -10 -19z"/>
<path d="M775 853 l-17 -28 23 22 c12 12 20 25 17 28 -3 3 -13 -7 -23 -22z"/>
<path d="M1297 873 c-4 -3 -7 -14 -7 -23 0 -24 -61 -92 -76 -86 -8 3 -11 0 -7
-10 3 -7 0 -14 -6 -14 -6 0 -11 -11 -11 -25 0 -27 35 -54 43 -32 3 6 6 2 6
-10 1 -13 -3 -23 -8 -23 -18 0 -22 -36 -10 -107 6 -40 15 -73 18 -73 39 1 50
14 55 64 20 195 19 207 -26 169 -15 -13 -16 -11 -8 23 5 21 7 42 4 46 -3 5 8
22 25 39 17 17 31 39 31 50 0 19 -11 25 -23 12z m-30 -238 c0 -8 -4 -12 -9 -9
-5 3 -6 10 -3 15 9 13 12 11 12 -6z m-19 -50 c-6 -14 -13 -23 -15 -21 -5 5 15
46 22 46 3 0 -1 -11 -7 -25z"/>
<path d="M680 853 c-13 -15 -12 -16 4 -10 10 4 20 7 22 7 2 0 4 5 4 10 0 15
-13 12 -30 -7z"/>
<path d="M290 850 c0 -5 5 -10 10 -10 6 0 10 5 10 10 0 6 -4 10 -10 10 -5 0
-10 -4 -10 -10z"/>
<path d="M828 811 c-2 -24 1 -37 7 -35 12 5 17 74 5 74 -4 0 -10 -17 -12 -39z"/>
<path d="M1009 824 c-23 -25 -23 -26 -2 -15 23 12 38 29 31 37 -3 2 -15 -8
-29 -22z"/>
<path d="M273 814 c-18 -19 -16 -29 2 -14 14 12 19 7 16 -13 -1 -5 3 -6 8 -3
5 4 12 -7 16 -24 4 -16 11 -30 16 -30 13 0 12 6 -11 50 -24 47 -31 52 -47 34z"/>
<path d="M1090 816 c0 -9 -4 -14 -10 -11 -5 3 -10 2 -10 -2 0 -13 -56 -43 -65
-35 -4 4 -5 -2 -1 -14 6 -18 2 -21 -26 -20 -18 1 -36 5 -40 10 -12 18 -20
-127 -13 -250 l7 -126 37 5 c20 3 47 9 61 12 19 5 21 4 10 -4 -8 -5 -32 -13
-52 -16 -21 -4 -41 -12 -44 -17 -7 -11 18 -7 63 8 17 6 17 6 0 -7 -15 -12 -9
-14 53 -14 38 0 70 4 70 9 0 4 17 5 38 2 26 -5 32 -4 21 4 -9 5 -33 12 -53 14
-21 3 -43 9 -49 14 -7 6 -39 18 -72 27 -68 20 -69 20 -61 33 4 6 28 3 63 -7
54 -16 59 -16 120 3 47 15 62 24 59 35 -3 9 -10 35 -16 59 -10 38 -13 42 -27
30 -14 -12 -15 -8 -11 41 4 36 -1 82 -14 135 -19 78 -38 120 -38 82z m-52
-111 c-6 -14 -13 -23 -16 -21 -7 7 9 46 18 46 5 0 4 -11 -2 -25z m51 -208 c0
-21 -1 -21 -9 -2 -12 28 -12 37 0 30 6 -3 10 -16 9 -28z m-9 -47 c-6 -11 -13
-20 -16 -20 -2 0 0 9 6 20 6 11 13 20 16 20 2 0 0 -9 -6 -20z m-81 -54 c-2 -2
-17 -6 -34 -10 -22 -5 -26 -4 -15 4 14 9 59 15 49 6z"/>
<path d="M1302 780 c0 -14 2 -19 5 -12 2 6 2 18 0 25 -3 6 -5 1 -5 -13z"/>
<path d="M770 780 c0 -5 5 -10 11 -10 5 0 7 5 4 10 -3 6 -8 10 -11 10 -2 0 -4
-4 -4 -10z"/>
<path d="M930 779 c0 -5 5 -7 10 -4 6 3 10 8 10 11 0 2 -4 4 -10 4 -5 0 -10
-5 -10 -11z"/>
<path d="M65 771 c-3 -5 -1 -12 5 -16 5 -3 10 1 10 9 0 18 -6 21 -15 7z"/>
<path d="M854 765 c-3 -8 -3 -19 1 -25 4 -6 2 -16 -3 -23 -11 -14 -27 -95 -17
-85 8 7 26 74 28 101 1 9 5 17 9 17 4 0 8 7 8 15 0 19 -19 20 -26 0z"/>
<path d="M1341 764 c0 -11 3 -14 6 -6 3 7 2 16 -1 19 -3 4 -6 -2 -5 -13z"/>
<path d="M820 735 c0 -8 2 -15 4 -15 2 0 6 7 10 15 3 8 1 15 -4 15 -6 0 -10
-7 -10 -15z"/>
<path d="M350 731 c0 -6 -9 -11 -20 -11 -17 0 -19 -5 -15 -27 3 -16 2 -22 -1
-15 -10 21 -36 15 -29 -7 4 -15 2 -18 -12 -15 -12 3 -24 -5 -36 -27 -11 -20
-23 -29 -32 -26 -12 5 -12 2 -3 -18 l11 -24 37 32 c21 18 65 56 99 85 63 53
71 65 23 35 -24 -16 -25 -16 -14 -1 9 11 10 18 2 23 -5 3 -10 1 -10 -4z m-73
-97 c-3 -3 -12 -4 -19 -1 -8 3 -5 6 6 6 11 1 17 -2 13 -5z"/>
<path d="M105 710 c-3 -6 1 -7 9 -4 18 7 21 14 7 14 -6 0 -13 -4 -16 -10z"/>
<path d="M267 713 c-4 -3 -7 -15 -7 -27 0 -20 0 -20 15 0 8 10 15 22 15 27 0
9 -14 9 -23 0z"/>
<path d="M155 646 c3 -21 7 -42 10 -46 3 -5 -1 -15 -9 -23 -9 -8 -11 -19 -6
-28 13 -19 19 -9 26 43 5 34 2 52 -10 69 -15 22 -15 22 -11 -15z"/>
<path d="M24 615 c-7 -5 -14 -21 -16 -35 -3 -24 -1 -25 47 -25 45 0 50 2 53
25 4 22 2 23 -14 10 -16 -14 -17 -13 -12 10 4 21 1 25 -20 25 -14 0 -31 -4
-38 -10z"/>
<path d="M796 600 c-13 -58 -27 -152 -22 -157 4 -5 19 37 36 106 5 18 5 43 0
55 -8 20 -8 20 -14 -4z"/>
<path d="M0 499 l0 -41 33 8 c17 4 37 7 44 7 13 0 27 43 18 57 -4 6 -26 10
-51 10 l-44 0 0 -41z"/>
<path d="M132 518 c-16 -16 -15 -48 2 -48 16 0 48 45 39 54 -10 10 -28 7 -41
-6z"/>
<path d="M1305 470 c-13 -6 -15 -9 -5 -9 8 0 22 4 30 9 18 12 2 12 -25 0z"/>
<path d="M1170 430 c-13 -9 -13 -10 0 -9 8 0 24 4 35 9 l20 9 -20 0 c-11 0
-27 -4 -35 -9z"/>
<path d="M1254 434 c-12 -5 3 -94 16 -94 7 0 20 58 20 88 0 12 -15 15 -36 6z"/>
<path d="M1170 406 l-35 -13 39 -17 c52 -22 73 -22 51 0 -9 9 -14 23 -11 30 6
17 2 16 -44 0z"/>
<path d="M2001 328 c1 -7 0 -20 -4 -28 -3 -8 -8 -29 -11 -46 -4 -27 -2 -33 17
-38 12 -3 24 -1 25 4 2 6 8 8 13 4 5 -3 9 1 9 8 0 7 8 22 17 33 15 20 15 20
10 -2 -6 -27 -6 -27 28 -11 44 20 36 30 -67 76 -4 2 -3 -11 3 -28 6 -17 9 -33
6 -36 -3 -3 -11 12 -18 35 -11 37 -33 59 -28 29z"/>
<path d="M940 294 c0 -18 7 -25 28 -30 57 -12 176 -53 156 -54 -11 0 -56 11
-100 24 l-79 23 -3 -39 c-6 -71 -25 -64 229 -83 l76 -6 12 60 c13 67 30 83 24
24 -2 -21 -5 -47 -6 -58 -1 -13 3 -19 13 -16 8 2 50 5 92 6 42 2 85 8 95 15
14 9 5 10 -41 5 -55 -6 -75 0 -76 25 0 10 125 -6 148 -19 13 -7 26 -10 29 -7
9 9 -86 48 -97 41 -6 -4 -9 -1 -8 5 2 7 -25 23 -60 36 -53 20 -69 22 -105 14
-55 -13 -90 -13 -82 0 4 6 12 10 18 9 7 -1 24 -1 40 0 29 1 38 20 10 20 -10 0
-43 4 -73 10 -30 5 -97 11 -147 14 -92 4 -93 4 -93 -19z m175 -15 c-22 -4 -51
-8 -65 -7 -35 1 34 15 75 16 25 0 23 -2 -10 -9z m85 -63 c0 -9 -40 -13 -46 -5
-3 5 6 9 20 9 14 0 26 -2 26 -4z"/>
<path d="M1290 290 c8 -5 20 -10 25 -10 6 0 3 5 -5 10 -8 5 -19 10 -25 10 -5
0 -3 -5 5 -10z"/>
<path d="M1532 278 c3 -7 19 -15 37 -19 36 -8 31 1 -12 19 -23 10 -28 10 -25
0z"/>
<path d="M0 270 c0 -5 5 -10 11 -10 5 0 7 5 4 10 -3 6 -8 10 -11 10 -2 0 -4
-4 -4 -10z"/>
<path d="M1450 241 c0 -10 78 -46 85 -39 2 2 -16 14 -40 26 -25 12 -45 18 -45
13z"/>
<path d="M1510 247 c0 -12 96 -48 120 -45 19 3 12 7 -32 21 -32 10 -64 20 -73
23 -8 3 -15 4 -15 1z"/>
<path d="M1660 223 c25 -8 81 -17 124 -19 87 -5 100 2 21 10 -28 3 -77 10
-110 16 -79 13 -90 11 -35 -7z"/>
<path d="M2090 230 c-12 -8 -9 -10 13 -10 15 0 27 5 27 10 0 13 -20 13 -40 0z"/>
<path d="M1705 190 l-50 -6 58 -8 c34 -5 76 -5 100 1 l42 9 -50 5 c-27 2 -72
2 -100 -1z"/>
<path d="M1889 194 c-1 -5 -1 -12 0 -16 0 -5 -9 -8 -21 -8 -32 0 -15 -11 23
-15 19 -2 28 -1 21 2 -6 2 -10 9 -6 14 8 14 24 11 24 -6 0 -8 5 -15 12 -15 6
0 8 3 5 7 -4 3 -2 12 4 20 9 10 8 13 -2 13 -8 0 -24 3 -36 6 -13 4 -24 2 -24
-2z"/>
<path d="M1990 192 l25 -8 -27 -7 c-42 -11 -34 -27 13 -27 27 0 38 -4 33 -11
-4 -8 1 -9 17 -4 31 10 29 7 22 33 -3 12 -13 22 -23 22 -10 0 -33 2 -51 5 -27
4 -29 3 -9 -3z"/>
<path d="M2094 189 c-3 -6 3 -21 15 -32 l21 -21 0 22 c0 14 -6 22 -17 22 -15
0 -16 2 -3 10 9 6 10 10 3 10 -6 0 -15 -5 -19 -11z"/>
<path d="M1574 176 c11 -9 29 -16 40 -16 17 1 18 2 6 9 -8 5 -26 12 -40 15
-24 7 -24 6 -6 -8z"/>
<path d="M1720 141 c22 -18 39 -21 143 -21 119 0 165 14 60 18 -113 5 -189 11
-208 17 -16 6 -15 3 5 -14z"/>
<path d="M1545 139 c-116 -8 -305 -35 -315 -46 -3 -3 24 -3 60 1 36 4 128 10
205 13 77 3 145 9 150 13 13 10 55 -6 55 -21 0 -6 -21 -30 -47 -55 l-48 -43
160 1 c88 0 153 3 145 5 -50 16 -129 57 -124 64 3 5 -20 21 -51 35 -30 15 -58
30 -61 35 -3 5 -8 8 -12 8 -4 -1 -56 -5 -117 -10z"/>
<path d="M2097 130 c3 -11 12 -20 19 -20 18 0 18 8 0 26 -20 19 -25 18 -19 -6z"/>
<path d="M950 111 c0 -23 35 -30 43 -8 3 8 13 4 31 -12 24 -23 32 -19 27 12
-2 13 11 8 26 -10 7 -10 21 -35 29 -55 16 -37 18 -38 68 -38 l51 0 -26 18
c-76 50 -109 76 -109 83 0 14 9 11 43 -13 l32 -21 -26 27 c-22 23 -35 27 -107
33 -79 5 -82 5 -82 -16z"/>
<path d="M2016 113 c-43 -3 -64 -9 -76 -23 -10 -11 -20 -17 -24 -13 -10 10 -7
25 4 18 6 -3 10 -1 10 4 0 7 -29 11 -75 11 -41 0 -75 -2 -75 -4 0 -6 65 -43
90 -51 13 -4 32 -15 42 -25 24 -22 62 -30 149 -30 l69 0 0 45 c0 54 -19 61
-21 8 -2 -36 -2 -35 -12 15 -5 28 -13 51 -16 50 -3 -1 -33 -3 -65 -5z m-56
-81 c0 -7 -5 -10 -10 -7 -6 4 -8 11 -5 16 4 5 1 9 -5 9 -6 0 -8 5 -4 11 7 13
24 -7 24 -29z"/>
<path d="M1610 89 c-30 -11 -74 -26 -97 -34 -23 -8 -59 -23 -79 -34 l-37 -20
72 1 c71 0 73 1 108 39 22 23 52 43 75 49 21 6 38 13 38 15 0 9 -25 4 -80 -16z"/>
<path d="M1185 90 c-3 -5 3 -10 14 -10 12 0 21 5 21 10 0 6 -6 10 -14 10 -8 0
-18 -4 -21 -10z"/>
<path d="M1490 90 c-8 -5 -24 -7 -35 -4 -22 5 -183 -11 -192 -19 -2 -3 5 -19
18 -36 28 -38 55 -39 114 -7 24 14 75 34 114 46 39 11 71 23 71 25 0 9 -75 5
-90 -5z m-46 -25 c-23 -18 -40 -19 -50 -3 -4 7 -3 8 4 4 7 -4 20 -2 29 3 27
16 39 13 17 -4z"/>
<path d="M1010 70 c0 -11 63 -71 68 -65 2 2 -2 14 -9 27 -19 36 -59 62 -59 38z"/>
<path d="M1076 57 c3 -10 9 -15 12 -12 3 3 0 11 -7 18 -10 9 -11 8 -5 -6z"/>
<path d="M1170 63 c0 -12 85 -63 104 -63 14 0 13 6 -10 35 -14 19 -34 35 -42
35 -12 0 -11 -4 6 -16 39 -27 23 -35 -18 -9 -22 14 -40 22 -40 18z"/>
<path d="M510 50 c0 -5 10 -10 23 -10 18 0 19 2 7 10 -19 13 -30 13 -30 0z"/>
<path d="M984 34 c20 -19 20 -25 1 -18 -8 4 -15 1 -15 -5 0 -6 16 -11 36 -11
l36 0 -23 25 c-13 13 -30 25 -37 25 -10 0 -9 -4 2 -16z"/>
<path d="M535 10 c-3 -5 -1 -10 4 -10 6 0 11 5 11 10 0 6 -2 10 -4 10 -3 0 -8
-4 -11 -10z"/>
</g>
</svg>
